<mxfile host="65bd71144e">
    <diagram id="qhRdRoCIm7bDDQnwQVNo" name="Page-1">
        <mxGraphModel dx="3218" dy="2162" grid="1" gridSize="10" guides="1" tooltips="1" connect="1" arrows="1" fold="1" page="1" pageScale="1" pageWidth="850" pageHeight="1100" math="0" shadow="0">
            <root>
                <mxCell id="0"/>
                <mxCell id="1" parent="0"/>
                <mxCell id="2" style="edgeStyle=orthogonalEdgeStyle;rounded=0;orthogonalLoop=1;jettySize=auto;html=1;entryX=0;entryY=0.5;entryDx=0;entryDy=0;entryPerimeter=0;" edge="1" parent="1" source="3" target="5">
                    <mxGeometry relative="1" as="geometry"/>
                </mxCell>
                <mxCell id="3" value="" style="points=[[0.145,0.145,0],[0.5,0,0],[0.855,0.145,0],[1,0.5,0],[0.855,0.855,0],[0.5,1,0],[0.145,0.855,0],[0,0.5,0]];shape=mxgraph.bpmn.event;html=1;verticalLabelPosition=bottom;labelBackgroundColor=#ffffff;verticalAlign=top;align=center;perimeter=ellipsePerimeter;outlineConnect=0;aspect=fixed;outline=standard;symbol=general;fillColor=#d5e8d4;strokeColor=#82b366;" vertex="1" parent="1">
                    <mxGeometry x="-690" y="5" width="50" height="50" as="geometry"/>
                </mxCell>
                <mxCell id="4" style="edgeStyle=orthogonalEdgeStyle;rounded=0;orthogonalLoop=1;jettySize=auto;html=1;fillColor=#6a00ff;strokeColor=#3700CC;" edge="1" parent="1" source="5" target="10">
                    <mxGeometry relative="1" as="geometry">
                        <mxPoint x="-380" y="-35" as="targetPoint"/>
                    </mxGeometry>
                </mxCell>
                <mxCell id="5" value="Kasutaja avab Ravimiskeemi detailvaate" style="points=[[0.25,0,0],[0.5,0,0],[0.75,0,0],[1,0.25,0],[1,0.5,0],[1,0.75,0],[0.75,1,0],[0.5,1,0],[0.25,1,0],[0,0.75,0],[0,0.5,0],[0,0.25,0]];shape=mxgraph.bpmn.task;whiteSpace=wrap;rectStyle=rounded;size=10;taskMarker=abstract;fillColor=#6a00ff;strokeColor=#3700CC;fontSize=11;fontColor=#ffffff;" vertex="1" parent="1">
                    <mxGeometry x="-590" y="-10" width="120" height="80" as="geometry"/>
                </mxCell>
                <mxCell id="6" value="Kasutaja lisab ravimiskeemile &lt;br&gt;ravimile kommentaari" style="edgeStyle=orthogonalEdgeStyle;rounded=0;orthogonalLoop=1;jettySize=auto;html=1;entryX=1;entryY=0.5;entryDx=0;entryDy=0;entryPerimeter=0;exitX=-0.2;exitY=0.087;exitDx=0;exitDy=0;exitPerimeter=0;" edge="1" parent="1" source="34" target="12">
                    <mxGeometry relative="1" as="geometry">
                        <mxPoint x="-709.9999999999998" y="-245" as="targetPoint"/>
                        <Array as="points">
                            <mxPoint x="-241" y="-399"/>
                        </Array>
                        <mxPoint as="offset"/>
                        <mxPoint x="-790" y="-420" as="sourcePoint"/>
                    </mxGeometry>
                </mxCell>
                <mxCell id="7" value="Kasutaja märgib&lt;br&gt;kinnitatud ravimi&amp;nbsp;&lt;div&gt;kustutamiseks&lt;/div&gt;" style="edgeStyle=orthogonalEdgeStyle;rounded=0;orthogonalLoop=1;jettySize=auto;html=1;entryX=0;entryY=0.25;entryDx=0;entryDy=0;entryPerimeter=0;exitX=1;exitY=0.07;exitDx=0;exitDy=0;exitPerimeter=0;" edge="1" parent="1" source="34" target="32">
                    <mxGeometry relative="1" as="geometry">
                        <mxPoint x="-105" y="-360" as="targetPoint"/>
                        <mxPoint x="-105" y="-220" as="sourcePoint"/>
                    </mxGeometry>
                </mxCell>
                <mxCell id="8" value="Kasutaja lahkub Ravimiskeemi detailvaatest" style="edgeStyle=orthogonalEdgeStyle;rounded=0;orthogonalLoop=1;jettySize=auto;html=1;entryX=0.5;entryY=0;entryDx=0;entryDy=0;entryPerimeter=0;exitX=0.398;exitY=0.999;exitDx=0;exitDy=0;exitPerimeter=0;" edge="1" parent="1" source="34" target="33">
                    <mxGeometry relative="1" as="geometry">
                        <mxPoint x="-225" y="510" as="sourcePoint"/>
                    </mxGeometry>
                </mxCell>
                <mxCell id="9" value="" style="edgeStyle=orthogonalEdgeStyle;rounded=0;orthogonalLoop=1;jettySize=auto;html=1;entryX=-0.06;entryY=0.548;entryDx=0;entryDy=0;entryPerimeter=0;" edge="1" parent="1" source="10" target="34">
                    <mxGeometry relative="1" as="geometry"/>
                </mxCell>
                <mxCell id="10" value="Kasutaja näeb &#10;patsiendi andmeid ja Ravimiskeemi detilvaadet: kinnitatud ravimiskeemi nimekirja ja mustandite nimekirja; ravimite kommentaare ja staatust" style="points=[[0.25,0,0],[0.5,0,0],[0.75,0,0],[1,0.25,0],[1,0.5,0],[1,0.75,0],[0.75,1,0],[0.5,1,0],[0.25,1,0],[0,0.75,0],[0,0.5,0],[0,0.25,0]];shape=mxgraph.bpmn.task;whiteSpace=wrap;rectStyle=rounded;size=10;taskMarker=abstract;fillColor=#6a00ff;strokeColor=#3700CC;fontSize=11;fontColor=#ffffff;" vertex="1" parent="1">
                    <mxGeometry x="-420" y="-50" width="120" height="160" as="geometry"/>
                </mxCell>
                <mxCell id="11" style="edgeStyle=orthogonalEdgeStyle;rounded=0;orthogonalLoop=1;jettySize=auto;html=1;exitX=1;exitY=0.75;exitDx=0;exitDy=0;exitPerimeter=0;entryX=-0.3;entryY=0.108;entryDx=0;entryDy=0;entryPerimeter=0;" edge="1" parent="1" source="12" target="34">
                    <mxGeometry relative="1" as="geometry">
                        <mxPoint x="-800" y="-360" as="targetPoint"/>
                    </mxGeometry>
                </mxCell>
                <mxCell id="12" value="Ravimile tekib kommentaar juurde" style="points=[[0.25,0,0],[0.5,0,0],[0.75,0,0],[1,0.25,0],[1,0.5,0],[1,0.75,0],[0.75,1,0],[0.5,1,0],[0.25,1,0],[0,0.75,0],[0,0.5,0],[0,0.25,0]];shape=mxgraph.bpmn.task;whiteSpace=wrap;rectStyle=rounded;size=10;taskMarker=abstract;fillColor=#6a00ff;strokeColor=#3700CC;fontSize=11;dashed=1;fontColor=#ffffff;" vertex="1" parent="1">
                    <mxGeometry x="-600" y="-440" width="120" height="80" as="geometry"/>
                </mxCell>
                <mxCell id="13" value="Kasutaja valib printida patsiendile&lt;br&gt;Ravimiskeemi meelespea&lt;br&gt;lehe" style="edgeStyle=orthogonalEdgeStyle;rounded=0;orthogonalLoop=1;jettySize=auto;html=1;entryX=0;entryY=0.5;entryDx=0;entryDy=0;entryPerimeter=0;exitX=1.422;exitY=0.444;exitDx=0;exitDy=0;exitPerimeter=0;" edge="1" parent="1" source="34" target="16">
                    <mxGeometry relative="1" as="geometry">
                        <mxPoint x="-260" y="-70.03999999999999" as="sourcePoint"/>
                        <mxPoint x="-70" y="-90.03999999999999" as="targetPoint"/>
                    </mxGeometry>
                </mxCell>
                <mxCell id="14" value="Kas ravimiskeemis on &lt;br&gt;kinnitamata muudatusi: &lt;br&gt;lisatud, muudetud või kustutatud ravimeid?" style="edgeStyle=orthogonalEdgeStyle;rounded=0;orthogonalLoop=1;jettySize=auto;html=1;exitX=0.975;exitY=0.919;exitDx=0;exitDy=0;exitPerimeter=0;" edge="1" parent="1" source="34" target="21">
                    <mxGeometry relative="1" as="geometry">
                        <mxPoint x="180" y="559.95" as="targetPoint"/>
                        <mxPoint x="-210" y="374.95" as="sourcePoint"/>
                        <Array as="points">
                            <mxPoint x="-220" y="375"/>
                            <mxPoint x="-220" y="375"/>
                        </Array>
                    </mxGeometry>
                </mxCell>
                <mxCell id="15" style="edgeStyle=orthogonalEdgeStyle;rounded=0;orthogonalLoop=1;jettySize=auto;html=1;exitX=1;exitY=0.5;exitDx=0;exitDy=0;exitPerimeter=0;entryX=0;entryY=0.5;entryDx=0;entryDy=0;entryPerimeter=0;fillColor=#6a00ff;strokeColor=#3700CC;" edge="1" parent="1" source="16" target="18">
                    <mxGeometry relative="1" as="geometry"/>
                </mxCell>
                <mxCell id="16" value="Kasutaja avab meelespea lehe ja vajutab print" style="points=[[0.25,0,0],[0.5,0,0],[0.75,0,0],[1,0.25,0],[1,0.5,0],[1,0.75,0],[0.75,1,0],[0.5,1,0],[0.25,1,0],[0,0.75,0],[0,0.5,0],[0,0.25,0]];shape=mxgraph.bpmn.task;whiteSpace=wrap;rectStyle=rounded;size=10;taskMarker=abstract;fillColor=#6a00ff;strokeColor=#3700CC;fontSize=11;fontColor=#ffffff;" vertex="1" parent="1">
                    <mxGeometry x="-40" y="-110.03999999999999" width="120" height="80" as="geometry"/>
                </mxCell>
                <mxCell id="17" style="edgeStyle=orthogonalEdgeStyle;rounded=0;orthogonalLoop=1;jettySize=auto;html=1;exitX=0.5;exitY=1;exitDx=0;exitDy=0;exitPerimeter=0;entryX=1.074;entryY=0.507;entryDx=0;entryDy=0;entryPerimeter=0;" edge="1" parent="1" source="18" target="34">
                    <mxGeometry relative="1" as="geometry">
                        <mxPoint x="-240" y="-10.04" as="targetPoint"/>
                    </mxGeometry>
                </mxCell>
                <mxCell id="18" value="Patsiendile on prinditud kehtivate ravimitega ravimskeem" style="points=[[0.25,0,0],[0.5,0,0],[0.75,0,0],[1,0.25,0],[1,0.5,0],[1,0.75,0],[0.75,1,0],[0.5,1,0],[0.25,1,0],[0,0.75,0],[0,0.5,0],[0,0.25,0]];shape=mxgraph.bpmn.task;whiteSpace=wrap;rectStyle=rounded;size=10;taskMarker=abstract;fillColor=#6a00ff;strokeColor=#3700CC;fontSize=11;fontColor=#ffffff;" vertex="1" parent="1">
                    <mxGeometry x="120" y="-110.03999999999999" width="120" height="80" as="geometry"/>
                </mxCell>
                <mxCell id="19" value="Ei" style="edgeStyle=orthogonalEdgeStyle;rounded=0;orthogonalLoop=1;jettySize=auto;html=1;exitX=0.5;exitY=1;exitDx=0;exitDy=0;entryX=1;entryY=0.978;entryDx=0;entryDy=0;entryPerimeter=0;" edge="1" parent="1" source="21" target="34">
                    <mxGeometry relative="1" as="geometry">
                        <mxPoint x="-210" y="429.95" as="targetPoint"/>
                        <Array as="points">
                            <mxPoint x="45" y="429"/>
                        </Array>
                    </mxGeometry>
                </mxCell>
                <mxCell id="20" value="Jah" style="edgeStyle=orthogonalEdgeStyle;rounded=0;orthogonalLoop=1;jettySize=auto;html=1;entryX=0;entryY=0.5;entryDx=0;entryDy=0;entryPerimeter=0;" edge="1" parent="1" source="21" target="23">
                    <mxGeometry relative="1" as="geometry">
                        <mxPoint x="319.99999999999955" y="514.95" as="targetPoint"/>
                    </mxGeometry>
                </mxCell>
                <mxCell id="21" value="" style="rhombus;whiteSpace=wrap;html=1;fontSize=11;fillColor=#fff2cc;strokeColor=#d6b656;aspect=fixed;" vertex="1" parent="1">
                    <mxGeometry x="20" y="349.95" width="50" height="50" as="geometry"/>
                </mxCell>
                <mxCell id="22" value="Kas kasutajal on õigus kinnitada ravimiskeemis&lt;br&gt;olevaid ravimeid?&amp;nbsp;" style="edgeStyle=orthogonalEdgeStyle;rounded=0;orthogonalLoop=1;jettySize=auto;html=1;entryX=0;entryY=0.5;entryDx=0;entryDy=0;" edge="1" parent="1" source="23" target="26">
                    <mxGeometry relative="1" as="geometry"/>
                </mxCell>
                <mxCell id="23" value="Kasutaja vajutab nupule &quot;kinnita ravimiskeem&quot;" style="points=[[0.25,0,0],[0.5,0,0],[0.75,0,0],[1,0.25,0],[1,0.5,0],[1,0.75,0],[0.75,1,0],[0.5,1,0],[0.25,1,0],[0,0.75,0],[0,0.5,0],[0,0.25,0]];shape=mxgraph.bpmn.task;whiteSpace=wrap;rectStyle=rounded;size=10;taskMarker=abstract;fillColor=#6a00ff;strokeColor=#3700CC;fontSize=11;fontColor=#ffffff;" vertex="1" parent="1">
                    <mxGeometry x="150" y="334.95" width="120" height="80" as="geometry"/>
                </mxCell>
                <mxCell id="24" value="Jah" style="edgeStyle=orthogonalEdgeStyle;rounded=0;orthogonalLoop=1;jettySize=auto;html=1;entryX=0.5;entryY=1;entryDx=0;entryDy=0;entryPerimeter=0;exitX=0.5;exitY=0;exitDx=0;exitDy=0;fillColor=#6a00ff;strokeColor=#3700CC;" edge="1" parent="1" source="26" target="28">
                    <mxGeometry relative="1" as="geometry">
                        <mxPoint x="520" y="264.95" as="sourcePoint"/>
                    </mxGeometry>
                </mxCell>
                <mxCell id="25" value="Jah, &lt;br&gt;osaliselt" style="edgeStyle=orthogonalEdgeStyle;rounded=0;orthogonalLoop=1;jettySize=auto;html=1;exitX=1;exitY=0.5;exitDx=0;exitDy=0;fontColor=#FF0000;" edge="1" parent="1" source="26" target="30">
                    <mxGeometry relative="1" as="geometry">
                        <mxPoint as="offset"/>
                    </mxGeometry>
                </mxCell>
                <mxCell id="26" value="" style="rhombus;whiteSpace=wrap;html=1;fontSize=11;fillColor=#fff2cc;strokeColor=#d6b656;" vertex="1" parent="1">
                    <mxGeometry x="535" y="342.45" width="65" height="65" as="geometry"/>
                </mxCell>
                <mxCell id="27" style="edgeStyle=orthogonalEdgeStyle;rounded=0;orthogonalLoop=1;jettySize=auto;html=1;exitX=0;exitY=0.5;exitDx=0;exitDy=0;exitPerimeter=0;entryX=0.967;entryY=0.807;entryDx=0;entryDy=0;entryPerimeter=0;" edge="1" parent="1" source="28" target="34">
                    <mxGeometry relative="1" as="geometry">
                        <mxPoint x="-130" y="249.95" as="targetPoint"/>
                        <Array as="points">
                            <mxPoint x="508" y="270"/>
                            <mxPoint x="-230" y="270"/>
                        </Array>
                    </mxGeometry>
                </mxCell>
                <mxCell id="28" value="Ravimid kinnitatakse ravimiskeemi" style="points=[[0.25,0,0],[0.5,0,0],[0.75,0,0],[1,0.25,0],[1,0.5,0],[1,0.75,0],[0.75,1,0],[0.5,1,0],[0.25,1,0],[0,0.75,0],[0,0.5,0],[0,0.25,0]];shape=mxgraph.bpmn.task;whiteSpace=wrap;rectStyle=rounded;size=10;taskMarker=abstract;fillColor=#6a00ff;strokeColor=#3700CC;fontSize=11;fontColor=#ffffff;" vertex="1" parent="1">
                    <mxGeometry x="507.5" y="219.95" width="120" height="80" as="geometry"/>
                </mxCell>
                <mxCell id="29" style="edgeStyle=orthogonalEdgeStyle;rounded=0;orthogonalLoop=1;jettySize=auto;html=1;exitX=0.5;exitY=1;exitDx=0;exitDy=0;exitPerimeter=0;entryX=1;entryY=1;entryDx=0;entryDy=0;" edge="1" parent="1" source="30" target="34">
                    <mxGeometry relative="1" as="geometry">
                        <mxPoint x="-220" y="439.95" as="targetPoint"/>
                        <Array as="points">
                            <mxPoint x="740" y="450"/>
                        </Array>
                    </mxGeometry>
                </mxCell>
                <mxCell id="30" value="Ravimskeemi kinnitatakse ravimid, mille kinnitamise õigus kasutajal on" style="points=[[0.25,0,0],[0.5,0,0],[0.75,0,0],[1,0.25,0],[1,0.5,0],[1,0.75,0],[0.75,1,0],[0.5,1,0],[0.25,1,0],[0,0.75,0],[0,0.5,0],[0,0.25,0]];shape=mxgraph.bpmn.task;whiteSpace=wrap;rectStyle=rounded;size=10;taskMarker=abstract;fillColor=#6a00ff;strokeColor=#3700CC;fontSize=11;fontColor=#ffffff;" vertex="1" parent="1">
                    <mxGeometry x="680" y="334.95" width="120" height="80" as="geometry"/>
                </mxCell>
                <mxCell id="31" style="edgeStyle=orthogonalEdgeStyle;rounded=0;orthogonalLoop=1;jettySize=auto;html=1;exitX=0;exitY=0.75;exitDx=0;exitDy=0;exitPerimeter=0;entryX=0.939;entryY=0.108;entryDx=0;entryDy=0;entryPerimeter=0;" edge="1" parent="1" source="32" target="34">
                    <mxGeometry relative="1" as="geometry">
                        <mxPoint x="-85" y="-210" as="targetPoint"/>
                    </mxGeometry>
                </mxCell>
                <mxCell id="32" value="Ravim märgitakse kustutamiseks, tekib kinnitamata muudatus" style="points=[[0.25,0,0],[0.5,0,0],[0.75,0,0],[1,0.25,0],[1,0.5,0],[1,0.75,0],[0.75,1,0],[0.5,1,0],[0.25,1,0],[0,0.75,0],[0,0.5,0],[0,0.25,0]];shape=mxgraph.bpmn.task;whiteSpace=wrap;rectStyle=rounded;size=10;taskMarker=abstract;fillColor=#6a00ff;strokeColor=#3700CC;fontSize=11;fontColor=#ffffff;" vertex="1" parent="1">
                    <mxGeometry x="-40" y="-440" width="120" height="80" as="geometry"/>
                </mxCell>
                <mxCell id="33" value="" style="points=[[0.145,0.145,0],[0.5,0,0],[0.855,0.145,0],[1,0.5,0],[0.855,0.855,0],[0.5,1,0],[0.145,0.855,0],[0,0.5,0]];shape=mxgraph.bpmn.event;html=1;verticalLabelPosition=bottom;labelBackgroundColor=#ffffff;verticalAlign=top;align=center;perimeter=ellipsePerimeter;outlineConnect=0;aspect=fixed;outline=throwing;symbol=general;fillColor=#f8cecc;strokeColor=#b85450;" vertex="1" parent="1">
                    <mxGeometry x="-261" y="560" width="50" height="50" as="geometry"/>
                </mxCell>
                <mxCell id="34" value="" style="rounded=0;whiteSpace=wrap;html=1;fillColor=#dae8fc;strokeColor=#6c8ebf;" vertex="1" parent="1">
                    <mxGeometry x="-240" y="-480" width="10" height="930" as="geometry"/>
                </mxCell>
                <mxCell id="35" value="Kasutaja lisab uue ravimi" style="edgeStyle=orthogonalEdgeStyle;rounded=0;orthogonalLoop=1;jettySize=auto;html=1;exitX=1.143;exitY=0.178;exitDx=0;exitDy=0;exitPerimeter=0;entryX=0;entryY=0.25;entryDx=0;entryDy=0;" edge="1" parent="1" source="34" target="37">
                    <mxGeometry relative="1" as="geometry">
                        <mxPoint x="-50" y="-350" as="targetPoint"/>
                        <mxPoint x="-230" y="-325" as="sourcePoint"/>
                    </mxGeometry>
                </mxCell>
                <mxCell id="36" style="edgeStyle=orthogonalEdgeStyle;rounded=0;orthogonalLoop=1;jettySize=auto;html=1;entryX=1.2;entryY=0.209;entryDx=0;entryDy=0;entryPerimeter=0;exitX=0;exitY=0.75;exitDx=0;exitDy=0;" edge="1" parent="1" source="37" target="34">
                    <mxGeometry relative="1" as="geometry">
                        <mxPoint x="-80" y="-270" as="sourcePoint"/>
                        <mxPoint x="-231" y="-290" as="targetPoint"/>
                    </mxGeometry>
                </mxCell>
                <mxCell id="37" value="Ravimiskeemi ravimi lisamine" style="shape=process;whiteSpace=wrap;html=1;backgroundOutline=1;fillColor=#6a00ff;strokeColor=#3700CC;align=center;verticalAlign=middle;fontFamily=Helvetica;fontSize=11;fontColor=#ffffff;" vertex="1" parent="1">
                    <mxGeometry x="-40" y="-330" width="140" height="60" as="geometry"/>
                </mxCell>
                <mxCell id="38" value="Kasutaja parandab&amp;nbsp;&lt;div&gt;kinnitatud ravimit&lt;/div&gt;" style="edgeStyle=orthogonalEdgeStyle;rounded=0;orthogonalLoop=1;jettySize=auto;html=1;exitX=1.143;exitY=0.178;exitDx=0;exitDy=0;exitPerimeter=0;entryX=0;entryY=0.25;entryDx=0;entryDy=0;" edge="1" parent="1" target="40">
                    <mxGeometry x="0.0033" relative="1" as="geometry">
                        <mxPoint x="-50" y="-280" as="targetPoint"/>
                        <mxPoint x="-229" y="-244" as="sourcePoint"/>
                        <mxPoint as="offset"/>
                    </mxGeometry>
                </mxCell>
                <mxCell id="39" style="edgeStyle=orthogonalEdgeStyle;rounded=0;orthogonalLoop=1;jettySize=auto;html=1;entryX=1.2;entryY=0.209;entryDx=0;entryDy=0;entryPerimeter=0;exitX=0;exitY=0.75;exitDx=0;exitDy=0;" edge="1" parent="1" source="40">
                    <mxGeometry relative="1" as="geometry">
                        <mxPoint x="-80" y="-200" as="sourcePoint"/>
                        <mxPoint x="-228" y="-216" as="targetPoint"/>
                    </mxGeometry>
                </mxCell>
                <mxCell id="40" value="Ravimretsepti parandamine" style="shape=process;whiteSpace=wrap;html=1;backgroundOutline=1;fillColor=#6a00ff;strokeColor=#3700CC;align=center;verticalAlign=middle;fontFamily=Helvetica;fontSize=11;fontColor=#ffffff;" vertex="1" parent="1">
                    <mxGeometry x="-40" y="-260" width="140" height="60" as="geometry"/>
                </mxCell>
                <mxCell id="41" value="Kasutaja pikendab&lt;div&gt;kinnitatud ravimit&lt;/div&gt;" style="edgeStyle=orthogonalEdgeStyle;rounded=0;orthogonalLoop=1;jettySize=auto;html=1;exitX=1.143;exitY=0.178;exitDx=0;exitDy=0;exitPerimeter=0;entryX=0;entryY=0.25;entryDx=0;entryDy=0;" edge="1" parent="1" target="43">
                    <mxGeometry x="0.0033" relative="1" as="geometry">
                        <mxPoint x="-50" y="-210" as="targetPoint"/>
                        <mxPoint x="-229" y="-174" as="sourcePoint"/>
                        <mxPoint as="offset"/>
                    </mxGeometry>
                </mxCell>
                <mxCell id="42" style="edgeStyle=orthogonalEdgeStyle;rounded=0;orthogonalLoop=1;jettySize=auto;html=1;entryX=1.2;entryY=0.209;entryDx=0;entryDy=0;entryPerimeter=0;exitX=0;exitY=0.75;exitDx=0;exitDy=0;" edge="1" parent="1" source="43">
                    <mxGeometry relative="1" as="geometry">
                        <mxPoint x="-80" y="-130" as="sourcePoint"/>
                        <mxPoint x="-228" y="-146" as="targetPoint"/>
                    </mxGeometry>
                </mxCell>
                <mxCell id="43" value="Ravimiskeemis ravimiretsepti pikendamine" style="shape=process;whiteSpace=wrap;html=1;backgroundOutline=1;fillColor=#6a00ff;strokeColor=#3700CC;align=center;verticalAlign=middle;fontFamily=Helvetica;fontSize=11;fontColor=#ffffff;" vertex="1" parent="1">
                    <mxGeometry x="-40" y="-190" width="140" height="60" as="geometry"/>
                </mxCell>
                <mxCell id="44" value="Kasutaja vaatab&amp;nbsp;&lt;div&gt;ravimiskeemi ajalugu&lt;/div&gt;" style="edgeStyle=orthogonalEdgeStyle;rounded=0;orthogonalLoop=1;jettySize=auto;html=1;exitX=0.5;exitY=0;exitDx=0;exitDy=0;entryX=0;entryY=0.25;entryDx=0;entryDy=0;" edge="1" parent="1" source="34" target="45">
                    <mxGeometry relative="1" as="geometry">
                        <mxPoint x="-50" y="-540" as="targetPoint"/>
                        <mxPoint x="-229" y="-504" as="sourcePoint"/>
                    </mxGeometry>
                </mxCell>
                <mxCell id="45" value="Ravimiskeemi ajalugu" style="shape=process;whiteSpace=wrap;html=1;backgroundOutline=1;fillColor=#6a00ff;strokeColor=#3700CC;align=center;verticalAlign=middle;fontFamily=Helvetica;fontSize=11;fontColor=#ffffff;" vertex="1" parent="1">
                    <mxGeometry x="-40" y="-520" width="140" height="60" as="geometry"/>
                </mxCell>
                <mxCell id="46" style="edgeStyle=orthogonalEdgeStyle;rounded=0;orthogonalLoop=1;jettySize=auto;html=1;entryX=0;entryY=0.5;entryDx=0;entryDy=0;" edge="1" parent="1" source="47" target="50">
                    <mxGeometry relative="1" as="geometry"/>
                </mxCell>
                <mxCell id="47" value="Kasutaja haldab Ravimiskeemi mustandeid" style="points=[[0.25,0,0],[0.5,0,0],[0.75,0,0],[1,0.25,0],[1,0.5,0],[1,0.75,0],[0.75,1,0],[0.5,1,0],[0.25,1,0],[0,0.75,0],[0,0.5,0],[0,0.25,0]];shape=mxgraph.bpmn.task;whiteSpace=wrap;rectStyle=rounded;size=10;taskMarker=abstract;fillColor=#6a00ff;strokeColor=#3700CC;fontSize=11;fontColor=#ffffff;" vertex="1" parent="1">
                    <mxGeometry x="120" y="10" width="120" height="80" as="geometry"/>
                </mxCell>
                <mxCell id="48" value="Mustandi tüüp: pikendamisel" style="edgeStyle=orthogonalEdgeStyle;rounded=0;orthogonalLoop=1;jettySize=auto;html=1;entryX=1;entryY=0.5;entryDx=0;entryDy=0;exitX=0.5;exitY=0;exitDx=0;exitDy=0;" edge="1" parent="1" source="50" target="43">
                    <mxGeometry relative="1" as="geometry"/>
                </mxCell>
                <mxCell id="49" value="Mustandi tüüp: muutmisel&lt;div&gt;JA&amp;nbsp;&lt;/div&gt;&lt;div&gt;Mustandi tüüp: Uus ravim&lt;/div&gt;" style="edgeStyle=orthogonalEdgeStyle;rounded=0;orthogonalLoop=1;jettySize=auto;html=1;entryX=1;entryY=0.5;entryDx=0;entryDy=0;exitX=1;exitY=0.5;exitDx=0;exitDy=0;" edge="1" parent="1" source="50" target="40">
                    <mxGeometry relative="1" as="geometry">
                        <Array as="points">
                            <mxPoint x="410" y="50"/>
                            <mxPoint x="410" y="-230"/>
                        </Array>
                    </mxGeometry>
                </mxCell>
                <mxCell id="50" value="" style="rhombus;whiteSpace=wrap;html=1;fontSize=11;fillColor=#fff2cc;strokeColor=#d6b656;aspect=fixed;" vertex="1" parent="1">
                    <mxGeometry x="282" y="25" width="50" height="50" as="geometry"/>
                </mxCell>
                <mxCell id="51" value="Kasutaja muudab kustutamise andmeid" style="points=[[0.25,0,0],[0.5,0,0],[0.75,0,0],[1,0.25,0],[1,0.5,0],[1,0.75,0],[0.75,1,0],[0.5,1,0],[0.25,1,0],[0,0.75,0],[0,0.5,0],[0,0.25,0]];shape=mxgraph.bpmn.task;whiteSpace=wrap;rectStyle=rounded;size=10;taskMarker=abstract;fillColor=#6a00ff;strokeColor=#3700CC;fontSize=11;fontColor=#ffffff;" vertex="1" parent="1">
                    <mxGeometry x="670" y="9.999999999999986" width="120" height="80" as="geometry"/>
                </mxCell>
                <mxCell id="52" value="Mustandi tüüp: kustutamisel" style="edgeStyle=orthogonalEdgeStyle;rounded=0;orthogonalLoop=1;jettySize=auto;html=1;entryX=0;entryY=0.5;entryDx=0;entryDy=0;entryPerimeter=0;" edge="1" parent="1" source="50" target="51">
                    <mxGeometry x="0.3491" relative="1" as="geometry">
                        <mxPoint as="offset"/>
                    </mxGeometry>
                </mxCell>
                <mxCell id="53" style="edgeStyle=orthogonalEdgeStyle;rounded=0;orthogonalLoop=1;jettySize=auto;html=1;entryX=1.1;entryY=0.731;entryDx=0;entryDy=0;entryPerimeter=0;exitX=0.5;exitY=1;exitDx=0;exitDy=0;exitPerimeter=0;" edge="1" parent="1" source="51" target="34">
                    <mxGeometry relative="1" as="geometry">
                        <Array as="points">
                            <mxPoint x="730" y="200"/>
                        </Array>
                    </mxGeometry>
                </mxCell>
                <mxCell id="54" style="edgeStyle=orthogonalEdgeStyle;rounded=0;orthogonalLoop=1;jettySize=auto;html=1;entryX=0;entryY=0.5;entryDx=0;entryDy=0;entryPerimeter=0;exitX=1.1;exitY=0.57;exitDx=0;exitDy=0;exitPerimeter=0;" edge="1" parent="1" source="34" target="47">
                    <mxGeometry relative="1" as="geometry"/>
                </mxCell>
                <mxCell id="55" value="Kasutaja kustutab &#10;mustandi" style="points=[[0.25,0,0],[0.5,0,0],[0.75,0,0],[1,0.25,0],[1,0.5,0],[1,0.75,0],[0.75,1,0],[0.5,1,0],[0.25,1,0],[0,0.75,0],[0,0.5,0],[0,0.25,0]];shape=mxgraph.bpmn.task;whiteSpace=wrap;rectStyle=rounded;size=10;taskMarker=abstract;fillColor=#6a00ff;strokeColor=#3700CC;fontSize=11;fontColor=#ffffff;" vertex="1" parent="1">
                    <mxGeometry x="-40" y="90" width="120" height="80" as="geometry"/>
                </mxCell>
                <mxCell id="56" value="" style="edgeStyle=orthogonalEdgeStyle;rounded=0;orthogonalLoop=1;jettySize=auto;html=1;entryX=1;entryY=0.5;entryDx=0;entryDy=0;entryPerimeter=0;exitX=0.5;exitY=1;exitDx=0;exitDy=0;" edge="1" parent="1" source="50" target="55">
                    <mxGeometry relative="1" as="geometry"/>
                </mxCell>
                <mxCell id="57" value="Mustand&amp;nbsp;&lt;div&gt;eemaldatakse&lt;/div&gt;" style="edgeStyle=orthogonalEdgeStyle;rounded=0;orthogonalLoop=1;jettySize=auto;html=1;entryX=1.218;entryY=0.657;entryDx=0;entryDy=0;entryPerimeter=0;" edge="1" parent="1" source="55" target="34">
                    <mxGeometry relative="1" as="geometry"/>
                </mxCell>
            </root>
        </mxGraphModel>
    </diagram>
</mxfile>